<svg xmlns="http://www.w3.org/2000/svg" width="1280" height="720" viewBox="0 0 1280 720" role="img" aria-labelledby="title desc">
  <title id="title">YouTube Local Exporter local processing architecture</title>
  <desc id="desc">A browser extension sends an authorized YouTube export request to a Windows native messaging host. Local tools download, remux, extract audio, and transcribe subtitles. Output files stay in a local folder.</desc>
  <defs>
    <linearGradient id="header" x1="0" y1="0" x2="1" y2="1">
      <stop offset="0" stop-color="#0f766e"/>
      <stop offset="1" stop-color="#2563eb"/>
    </linearGradient>
    <filter id="shadow" x="-20%" y="-20%" width="140%" height="140%">
      <feDropShadow dx="0" dy="18" stdDeviation="18" flood-color="#0f172a" flood-opacity="0.14"/>
    </filter>
    <marker id="arrow-teal" markerWidth="14" markerHeight="14" refX="10" refY="7" orient="auto" markerUnits="strokeWidth">
      <path d="M2 2 L10 7 L2 12 Z" fill="#0f766e"/>
    </marker>
    <marker id="arrow-blue" markerWidth="14" markerHeight="14" refX="10" refY="7" orient="auto" markerUnits="strokeWidth">
      <path d="M2 2 L10 7 L2 12 Z" fill="#2563eb"/>
    </marker>
    <style>
      .bg { fill: #f6f8fb; }
      .card { fill: #ffffff; stroke: #dbe3ec; stroke-width: 2; filter: url(#shadow); }
      .card-soft { fill: #ffffff; stroke: #dbe3ec; stroke-width: 2; }
      .hero-title { font: 700 32px/1.2 "Segoe UI", Arial, sans-serif; fill: #ffffff; }
      .hero-subtitle { font: 500 17px/1.45 "Segoe UI", Arial, sans-serif; fill: #dff7ef; }
      .title { font: 700 34px/1.2 "Segoe UI", Arial, sans-serif; fill: #0f172a; }
      .subtitle { font: 500 18px/1.45 "Segoe UI", Arial, sans-serif; fill: #475569; }
      .section-title { font: 700 24px "Segoe UI", Arial, sans-serif; fill: #0f172a; }
      .label { font: 650 18px "Segoe UI", Arial, sans-serif; fill: #172033; }
      .body { font: 500 15px "Segoe UI", Arial, sans-serif; fill: #506070; }
      .small { font: 600 13px "Segoe UI", Arial, sans-serif; fill: #64748b; }
      .chip { font: 700 13px "Segoe UI", Arial, sans-serif; fill: #0f766e; }
      .chip-fill { fill: #dff7ef; }
      .chip-blue { font: 700 13px "Segoe UI", Arial, sans-serif; fill: #1d4ed8; }
      .chip-blue-fill { fill: #dbeafe; }
      .chip-amber { font: 700 13px "Segoe UI", Arial, sans-serif; fill: #92400e; }
      .chip-amber-fill { fill: #fef3c7; }
      .line-teal { stroke: #0f766e; stroke-width: 5; fill: none; marker-end: url(#arrow-teal); }
      .line-blue { stroke: #2563eb; stroke-width: 5; fill: none; marker-end: url(#arrow-blue); }
      .thin { stroke: #cbd5e1; stroke-width: 2; fill: none; }
      .icon-stroke { stroke: #0f172a; stroke-width: 4; fill: none; stroke-linecap: round; stroke-linejoin: round; }
      .icon-teal { stroke: #0f766e; stroke-width: 4; fill: none; stroke-linecap: round; stroke-linejoin: round; }
      .icon-blue { stroke: #2563eb; stroke-width: 4; fill: none; stroke-linecap: round; stroke-linejoin: round; }
      .muted-fill { fill: #edf2f7; }
      .teal-fill { fill: #e6f7f2; }
      .blue-fill { fill: #eaf2ff; }
      .amber-fill { fill: #fff7df; }
      .red-fill { fill: #fee2e2; }
    </style>
  </defs>

  <rect class="bg" width="1280" height="720"/>

  <rect x="60" y="48" width="1160" height="112" rx="28" fill="url(#header)"/>
  <text x="96" y="96" class="hero-title">Export YouTube media without sending the job to a cloud service</text>
  <text x="96" y="130" class="hero-subtitle">Browser UI for control. Windows native host for local downloads, conversion, and subtitles. Files stay on disk.</text>

  <rect x="70" y="210" width="300" height="330" rx="22" class="card"/>
  <rect x="110" y="250" width="84" height="58" rx="14" class="blue-fill"/>
  <path class="icon-blue" d="M126 292h52M132 266h40M132 278h28"/>
  <circle cx="178" cy="266" r="5" fill="#2563eb"/>
  <text x="110" y="350" class="section-title">Browser Extension</text>
  <text x="110" y="384" class="body">Runs in Chrome, Edge, Chromium,</text>
  <text x="110" y="407" class="body">or Vivaldi on a YouTube watch page.</text>
  <rect x="110" y="436" width="112" height="30" rx="15" class="chip-blue-fill"/>
  <text x="128" y="456" class="chip-blue">activeTab</text>
  <rect x="232" y="436" width="96" height="30" rx="15" class="chip-blue-fill"/>
  <text x="250" y="456" class="chip-blue">storage</text>
  <text x="110" y="496" class="small">Collects current video URL, title,</text>
  <text x="110" y="516" class="small">cookies when enabled, and export settings.</text>

  <path class="line-blue" d="M388 370 C430 370 446 370 488 370"/>
  <rect x="410" y="322" width="96" height="36" rx="18" class="chip-blue-fill"/>
  <text x="426" y="345" class="chip-blue">user action</text>

  <rect x="500" y="210" width="300" height="330" rx="22" class="card"/>
  <rect x="540" y="250" width="84" height="58" rx="14" class="teal-fill"/>
  <path class="icon-teal" d="M556 292h52M566 262h32M566 276h32"/>
  <path class="icon-teal" d="M540 316h84"/>
  <text x="540" y="350" class="section-title">Native Host</text>
  <text x="540" y="384" class="body">A local Windows process receives</text>
  <text x="540" y="407" class="body">requests from the extension.</text>
  <rect x="540" y="436" width="144" height="30" rx="15" class="chip-fill"/>
  <text x="558" y="456" class="chip">local process</text>
  <rect x="540" y="476" width="202" height="30" rx="15" class="chip-fill"/>
  <text x="558" y="496" class="chip">nativeMessaging only</text>
  <text x="540" y="526" class="small">Tracks progress, cancellation, and tool status.</text>

  <path class="line-teal" d="M818 370 C860 370 878 370 920 370"/>
  <rect x="846" y="322" width="112" height="36" rx="18" class="chip-fill"/>
  <text x="872" y="345" class="chip">tools</text>

  <rect x="930" y="210" width="280" height="330" rx="22" class="card"/>
  <rect x="970" y="250" width="84" height="58" rx="14" class="amber-fill"/>
  <path class="icon-stroke" d="M986 290h52M992 266h40M992 278h32"/>
  <path class="icon-stroke" d="M1038 266l12 12-12 12"/>
  <text x="970" y="350" class="section-title">Local Tools</text>
  <text x="970" y="384" class="body">yt-dlp downloads authorized media.</text>
  <text x="970" y="407" class="body">FFmpeg remuxes and extracts audio.</text>
  <text x="970" y="430" class="body">Whisper can generate subtitles locally.</text>
  <rect x="970" y="462" width="82" height="30" rx="15" class="chip-amber-fill"/>
  <text x="989" y="482" class="chip-amber">yt-dlp</text>
  <rect x="1062" y="462" width="84" height="30" rx="15" class="chip-amber-fill"/>
  <text x="1078" y="482" class="chip-amber">FFmpeg</text>
  <rect x="970" y="502" width="94" height="30" rx="15" class="chip-amber-fill"/>
  <text x="988" y="522" class="chip-amber">Whisper</text>

  <rect x="160" y="590" width="960" height="72" rx="22" class="card-soft"/>
  <rect x="190" y="608" width="148" height="36" rx="18" class="chip-fill"/>
  <text x="212" y="632" class="chip">Local outputs</text>
  <text x="370" y="633" class="label">MP4 video</text>
  <circle cx="350" cy="626" r="6" fill="#0f766e"/>
  <text x="535" y="633" class="label">M4A / MP3 / OPUS / WAV</text>
  <circle cx="515" cy="626" r="6" fill="#2563eb"/>
  <text x="840" y="633" class="label">SRT / VTT subtitles</text>
  <circle cx="820" cy="626" r="6" fill="#d97706"/>

  <path class="thin" d="M650 540 L650 590"/>
  <path class="thin" d="M1070 540 C1070 570 1010 590 930 590"/>

  <rect x="84" y="176" width="188" height="34" rx="17" class="red-fill"/>
  <text x="104" y="199" class="chip-amber">authorized videos only</text>
  <rect x="946" y="176" width="188" height="34" rx="17" class="chip-fill"/>
  <text x="966" y="199" class="chip">no cloud upload</text>
</svg>
